HIERARCHY
ROOT SpineBase
{
  OFFSET 0.000000 0.000000 0.000000
  CHANNELS 6 Xposition Yposition Zposition Zrotation Xrotation Yrotation
  JOINT SpineMid
  {
    OFFSET -0.000000 30.071989 0.000000
    CHANNELS 3 Zrotation Xrotation Yrotation
    JOINT SpineShoulder
    {
      OFFSET -0.157560 22.356301 -0.751814
      CHANNELS 3 Zrotation Xrotation Yrotation
      JOINT Neck
      {
        OFFSET -0.092571 7.418767 -0.564918
        CHANNELS 3 Zrotation Xrotation Yrotation
        JOINT Head
        {
          OFFSET 3.165937 13.295057 -1.324369
          CHANNELS 3 Zrotation Xrotation Yrotation
          End Site
          {
            OFFSET 0 0 0
          }
        }
      }
      JOINT ShoulderLeft
      {
        OFFSET -15.971492 -0.044910 -5.047716
        CHANNELS 3 Zrotation Xrotation Yrotation
        JOINT ElbowLeft
        {
          OFFSET -5.106062 -24.800469 -0.217653
          CHANNELS 3 Zrotation Xrotation Yrotation
          JOINT WristLeft
          {
            OFFSET -1.308258 -24.477398 -5.574571
            CHANNELS 3 Zrotation Xrotation Yrotation
            JOINT HandLeft
            {
              OFFSET 0.509771 -4.938442 0.065346
              CHANNELS 3 Zrotation Xrotation Yrotation
              JOINT HandTipLeft
              {
                OFFSET -1.104493 -6.594189 0.008345
                CHANNELS 3 Zrotation Xrotation Yrotation
                End Site
                {
                  OFFSET 0 0 0
                }
              }
              JOINT ThumbLeft
              {
                OFFSET 2.497532 -1.250652 -2.409179
                CHANNELS 3 Zrotation Xrotation Yrotation
                End Site
                {
                  OFFSET 0 0 0
                }
              }
            }
          }
        }
      }
      JOINT ShoulderRight
      {
        OFFSET 18.177747 -3.702005 3.838584
        CHANNELS 3 Zrotation Xrotation Yrotation
        JOINT ElbowRight
        {
          OFFSET 0.752897 -25.165723 1.416153
          CHANNELS 3 Zrotation Xrotation Yrotation
          JOINT WristRight
          {
            OFFSET 0.472604 -22.836762 -4.100403
            CHANNELS 3 Zrotation Xrotation Yrotation
            JOINT HandRight
            {
              OFFSET -1.378750 -7.269033 0.306644
              CHANNELS 3 Zrotation Xrotation Yrotation
              JOINT HandTipRight
              {
                OFFSET 0.786953 -6.761583 -5.409054
                CHANNELS 3 Zrotation Xrotation Yrotation
                End Site
                {
                  OFFSET 0 0 0
                }
              }
              JOINT ThumbRight
              {
                OFFSET 0.100266 -2.072668 -0.896628
                CHANNELS 3 Zrotation Xrotation Yrotation
                End Site
                {
                  OFFSET 0 0 0
                }
              }
            }
          }
        }
      }
    }
  }
  JOINT HipLeft
  {
    OFFSET -7.929911 1.412042 -5.083083
    CHANNELS 3 Zrotation Xrotation Yrotation
    JOINT KneeLeft
    {
      OFFSET -5.938811 -29.560463 3.344063
      CHANNELS 3 Zrotation Xrotation Yrotation
      JOINT AnkleLeft
      {
        OFFSET 2.227439 -34.244322 9.774774
        CHANNELS 3 Zrotation Xrotation Yrotation
        JOINT FootLeft
        {
          OFFSET 2.706955 -4.023122 -13.058704
          CHANNELS 3 Zrotation Xrotation Yrotation
          End Site
          {
            OFFSET 0 0 0
          }
        }
      }
    }
  }
  JOINT HipRight
  {
    OFFSET 7.022391 0.463398 -1.361876
    CHANNELS 3 Zrotation Xrotation Yrotation
    JOINT KneeRight
    {
      OFFSET -2.846696 -30.775981 2.589414
      CHANNELS 3 Zrotation Xrotation Yrotation
      JOINT AnkleRight
      {
        OFFSET -6.216329 -32.206563 7.295827
        CHANNELS 3 Zrotation Xrotation Yrotation
        JOINT FootRight
        {
          OFFSET 1.886798 -3.789569 -12.625210
          CHANNELS 3 Zrotation Xrotation Yrotation
          End Site
          {
            OFFSET 0 0 0
          }
        }
      }
    }
  }
}
MOTION
Frames: 5
Frame Time: 0.033333
48.855012 71.271041 366.604064 0.000000 0.000000 -13.975389 -0.000000 0.000000 13.975389 -0.000000 0.000000 0.000000 -0.000000 0.000000 0.000000 0.000000 0.000000 0.000000 -0.000000 0.000000 0.000000 -0.000000 0.000000 0.000000 -0.000000 0.000000 0.000000 -0.000000 0.000000 0.000000 0.000000 0.000000 0.000000 0.000000 0.000000 0.000000 -0.000000 0.000000 0.000000 -0.000000 0.000000 0.000000 -0.000000 0.000000 0.000000 -0.000000 0.000000 0.000000 0.000000 0.000000 0.000000 0.000000 0.000000 0.000000 -0.000000 0.000000 13.975389 -0.000000 0.000000 0.000000 -0.000000 0.000000 0.000000 0.000000 0.000000 0.000000 -0.000000 0.000000 13.975389 -0.000000 0.000000 0.000000 -0.000000 0.000000 0.000000 0.000000 0.000000 0.000000
48.841584 71.265452 366.624349 0.020019 -0.037614 -14.154590 -0.028609 0.031576 14.154604 -0.000000 0.000000 0.000000 -0.000000 0.000000 0.000000 0.000000 0.000000 0.000000 -0.000000 0.000000 0.000000 -0.000000 0.000000 0.000000 -0.000000 0.000000 0.000000 1.313335 0.405967 -0.071125 0.000000 0.000000 0.000000 0.000000 0.000000 0.000000 -0.000000 0.000000 0.000000 0.277263 1.332296 -0.025380 3.521864 2.249599 -0.534673 -3.671540 -2.340932 0.469680 0.000000 0.000000 0.000000 0.000000 0.000000 0.000000 -0.028609 0.031576 14.154604 -0.000000 0.000000 0.000000 -0.388622 0.754408 1.738290 0.000000 0.000000 0.000000 -0.028609 0.031576 14.154604 -0.000000 0.000000 0.000000 -0.000000 0.000000 0.000000 0.000000 0.000000 0.000000
48.828491 71.261854 366.647843 0.039446 -0.074361 -14.317649 -0.056610 0.062296 14.317705 -0.000000 0.000000 0.000000 -0.000000 0.000000 0.000000 0.000000 0.000000 0.000000 -0.000000 0.000000 0.000000 -0.000000 0.000000 0.000000 -0.070313 1.084358 0.111692 2.479068 -0.159977 -0.237227 0.000000 0.000000 0.000000 0.000000 0.000000 0.000000 -0.052775 0.933279 0.025394 0.537932 1.367008 -0.065634 5.551386 3.144004 -0.802652 -5.752171 -3.095226 0.596982 0.000000 0.000000 0.000000 0.000000 0.000000 0.000000 -0.056610 0.062296 14.317705 -0.000000 0.000000 0.000000 -0.793285 1.115989 3.245254 0.000000 0.000000 0.000000 -0.056610 0.062296 14.317705 -0.000000 0.000000 0.000000 -0.000000 0.000000 0.000000 0.000000 0.000000 0.000000
48.815731 71.260247 366.674547 0.058277 -0.110233 -14.464563 -0.083964 0.092182 14.464687 -0.000000 0.000000 0.000000 -0.000000 0.000000 0.000000 0.000000 0.000000 0.000000 -0.000000 0.000000 0.000000 -0.000000 0.000000 0.000000 0.022506 1.429283 0.147584 3.243553 0.128108 -0.370259 0.000000 0.000000 0.000000 0.000000 0.000000 0.000000 -0.065126 1.380212 0.038441 0.698265 1.575391 -0.090064 6.719125 3.316862 -0.879745 -6.892646 -3.060233 0.564256 0.000000 0.000000 0.000000 0.000000 0.000000 0.000000 -0.083964 0.092182 14.464687 -0.000000 0.000000 0.000000 -1.205600 1.070187 4.536928 0.000000 0.000000 0.000000 -0.083964 0.092182 14.464687 -0.000000 0.000000 0.000000 -0.000000 0.000000 0.000000 0.000000 0.000000 0.000000
48.803306 71.260631 366.704461 0.076508 -0.145221 -14.595332 -0.110634 0.121255 14.595546 -0.000000 0.000000 0.000000 -0.000000 0.000000 0.000000 0.000000 0.000000 0.000000 -0.000000 0.000000 0.000000 -0.000000 0.000000 0.000000 0.202348 1.633521 0.168426 3.667763 0.665012 -0.525527 0.000000 0.000000 0.000000 0.000000 0.000000 0.000000 -0.067983 1.812436 0.051525 0.795803 1.518703 -0.108749 7.316988 3.022376 -0.816483 -7.391746 -2.668857 0.417521 0.000000 0.000000 0.000000 0.000000 0.000000 0.000000 -0.110634 0.121255 14.595546 -0.000000 0.000000 0.000000 -1.622172 0.580874 5.621356 0.000000 0.000000 0.000000 -0.110634 0.121255 14.595546 -0.000000 0.000000 0.000000 -0.000000 0.000000 0.000000 0.000000 0.000000 0.000000
